<?xml version="1.0" encoding="UTF-8"?>
<svg width="136px" height="29px" viewBox="0 0 136 29" version="1.1" xmlns="http://www.w3.org/2000/svg" xmlns:xlink="http://www.w3.org/1999/xlink">
    <!-- Generator: Sketch 52.4 (67378) - http://www.bohemiancoding.com/sketch -->
    <title>合并形状</title>
    <desc>Created with Sketch.</desc>
    <g id="Page-1" stroke="none" stroke-width="1" fill="none" fill-rule="evenodd">
        <g id="首页" transform="translate(-360.000000, -25.000000)" fill="#FFFFFF">
            <path d="M404.075912,41.8 L407.748905,31.3 L413.109489,31.3 L404.075912,53.5 L398.516788,53.5 L401.09781,47.4 L394.744526,31.3 L400.20438,31.3 L404.075912,41.8 Z M424.724088,37.8 C426.113869,38.2 427.106569,38.7 427.70219,39.4 C428.39708,40.2 428.694891,41.2 428.694891,42.3 C428.694891,45.6 425.319708,48.1 420.356204,47.9 C417.477372,47.8 414.30073,46.5 413.605839,46.2 L413.605839,41.9 L414.00292,41.9 C414.30073,42.1 417.179562,44.4 420.356204,44.4 C421.348905,44.4 423.334307,44.4 423.334307,43.1 C423.334307,41.9 419.661314,41.6 417.973723,41.1 C417.080292,40.8 415.392701,40.1 414.69781,39.3 C414.00292,38.5 413.605839,37.5 413.605839,36.3 C413.605839,34.7 414.30073,33.4 415.789781,32.4 C417.278832,31.3 419.065693,30.7 421.646715,30.8 C424.922628,30.9 427.305109,32.5 427.90073,32.8 L427.90073,36.9 L427.50365,36.9 C426.908029,36.3 424.525547,34.3 421.944526,34.3 C419.859854,34.3 418.966423,35 418.966423,35.6 C418.966423,36.4 419.661314,36.8 421.150365,37.1 C421.745985,37.2 424.128467,37.6 424.724088,37.8 Z M453.710949,30.7 C461.156204,30.7 462.545985,36.7 462.545985,39.3 C462.545985,42.6 460.659854,47.9 453.710949,47.9 C446.662774,47.9 444.875912,42.2 444.875912,39.3 C444.875912,36.7 446.464234,30.7 453.710949,30.7 Z M453.810219,44.4 C457.185401,44.4 457.185401,40.5 457.284672,39.4 C457.284672,38.5 457.284672,34.4 453.810219,34.4 C450.335766,34.4 450.335766,38.4 450.335766,39.4 C450.335766,40.3 450.335766,44.4 453.810219,44.4 Z M475.947445,31.2 C476.145985,31.2 476.344526,31.2 476.642336,31.3 C476.840876,31.3 477.039416,31.3 477.237956,31.3 L477.237956,36.3 L476.741606,36.3 C476.543066,36.2 473.564964,35.3 470.686131,38 L470.686131,47.6 L465.524088,47.6 L465.524088,31.3 L470.686131,31.3 L470.686131,34.1 C471.579562,32.8 473.962044,31.2 475.947445,31.2 Z M385.710949,30.8 C392.858394,30.8 394.248175,36 394.248175,38.7 L394.248175,40.5 L382.435036,40.5 C382.435036,43.1 385.016058,44.2 386.80292,44.4 C389.781022,44.6 391.964964,43.2 393.354745,41.9 L393.751825,41.9 L393.751825,42 L393.751825,46.4 C393.751825,46.4 390.277372,48.1 385.710949,48 C378.265693,47.8 377.173723,41.8 377.173723,38.7 C377.173723,35.7 379.258394,30.8 385.710949,30.8 Z M382.435036,37.3 L389.086131,37.3 C389.086131,36.2 388.589781,33.9 385.710949,34 C383.129927,34.1 382.534307,36.2 382.435036,37.3 Z M496,38.6 L496,40.5 L484.087591,40.5 C484.087591,43.1 486.668613,44.2 488.455474,44.4 C491.433577,44.6 493.617518,43.2 495.007299,41.9 L495.50365,41.9 L495.50365,42 L495.50365,46.4 C495.50365,46.4 492.029197,48.1 487.462774,48 C480.017518,47.8 478.925547,41.8 478.925547,38.7 C478.925547,35.7 481.010219,30.8 487.462774,30.8 C494.610219,30.8 496,36.1 496,38.6 Z M484.186861,37.3 L490.837956,37.3 C490.837956,36.2 490.341606,33.9 487.462774,34 C484.881752,34.1 484.286131,36.2 484.186861,37.3 Z M376.776642,31.3 L370.919708,38.3 L377.173723,47.5 L371.118248,47.5 L367.147445,41.5 L365.261314,43.8 L365.261314,47.5 L360,47.5 L360,26.1 L365.261314,25 L365.261314,38.4 L370.820438,31.3 L376.776642,31.3 Z M438.324088,27.7 L438.423358,27.7 L438.423358,31.3 L443.287591,31.3 L443.287591,34.8 L438.423358,34.8 C438.423358,34.8 438.423358,41.7 438.423358,42.1 C438.423358,44.5 440.110949,44.3 440.805839,44.3 C441.50073,44.2 442.592701,43.7 442.791241,43.6 L443.188321,43.6 L443.188321,47 C443.188321,47 441.10365,47.8 439.118248,47.8 C437.132847,47.8 435.643796,47.4 434.651095,46.6 C433.658394,45.8 433.162044,44.4 433.162044,42.4 L433.162044,34.8 L431.077372,34.8 L431.077372,31.3 L433.162044,31.3 L433.162044,28.8 L438.324088,27.7 Z" id="合并形状"></path>
        </g>
    </g>
</svg>